HIERARCHY
ROOT Hips
{
	OFFSET 0.000000 0.000000 0.000000
	CHANNELS 6 Xposition Yposition Zposition Zrotation Yrotation Xrotation 
	JOINT LHipJoint
	{
		OFFSET 0.000000 0.000000 0.000000
		CHANNELS 3 Zrotation Yrotation Xrotation
		JOINT LeftUpLeg
		{
			OFFSET 1.363060 -1.794630 0.839290
			CHANNELS 3 Zrotation Yrotation Xrotation
			JOINT LeftLeg
			{
				OFFSET 2.448110 -6.726130 0.000000
				CHANNELS 3 Zrotation Yrotation Xrotation
				JOINT LeftFoot
				{
					OFFSET 2.562200 -7.039590 0.000000
					CHANNELS 3 Zrotation Yrotation Xrotation
					JOINT LeftToeBase
					{
						OFFSET 0.157640 -0.433110 2.322550
						CHANNELS 3 Zrotation Yrotation Xrotation
						End Site
						{
							OFFSET 0.000000 0.000000 0.000000
						}
					}
				}
			}
		}
	}
	JOINT RHipJoint
	{
		OFFSET 0.000000 0.000000 0.000000
		CHANNELS 3 Zrotation Yrotation Xrotation
		JOINT RightUpLeg
		{
			OFFSET -1.305520 -1.794630 0.839290
			CHANNELS 3 Zrotation Yrotation Xrotation
			JOINT RightLeg
			{
				OFFSET -2.542530 -6.985550 0.000000
				CHANNELS 3 Zrotation Yrotation Xrotation
				JOINT RightFoot
				{
					OFFSET -2.568260 -7.056230 0.000000
					CHANNELS 3 Zrotation Yrotation Xrotation
					JOINT RightToeBase
					{
						OFFSET -0.164730 -0.452590 2.363150
						CHANNELS 3 Zrotation Yrotation Xrotation
						End Site
						{
							OFFSET 0.000000 0.000000 0.000000
						}
					}
				}
			}
		}
	}
}
MOTION
Frames: 11
Frame Time: 0.008333
0.191002 17.456741 -0.750683 136.665532 -85.590984 -126.451663 -10.155572 -0.025083 1.596351 -7.451072 -4.247638 -35.246048 0.872781 1.870298 48.525403 2.621982 16.269953 16.955478 6.378501 0.000000 -63.908400 9.568440 -1.546678 2.440262 8.498648 4.633701 -9.866471 2.119161 0.765430 2.459574 -0.977736 -4.629552 -2.414285 -0.936100 0.000000 -50.261500
0.245782 17.459796 -0.782030 133.593893 -85.542302 -123.682972 -10.080851 -0.382440 1.447555 -7.427694 -4.650964 -37.775210 1.089655 2.026304 52.855641 2.697640 15.813565 20.642501 6.873400 -0.000000 -63.261599 9.733549 -1.452871 2.173992 8.295568 4.135780 -9.787679 2.085635 0.678154 2.898024 -0.936119 -4.357426 -2.464516 -0.882300 0.000001 -50.497100
0.304149 17.460853 -0.810037 130.571852 -85.502530 -121.025689 -9.996131 -0.760156 1.261989 -7.424833 -5.017239 -40.311694 1.260941 2.191365 57.251940 2.771474 15.187791 24.008803 7.141601 0.000000 -61.797601 9.887608 -1.348591 1.869408 8.108406 3.611879 -9.574802 2.053543 0.594668 3.272474 -0.897631 -4.110685 -2.504173 -0.833700 0.000000 -50.752100
0.365093 17.459887 -0.834569 127.598557 -85.474544 -118.472234 -9.905267 -1.144800 1.039057 -7.457014 -5.334230 -42.857790 1.402177 2.379647 61.703408 2.835538 14.457919 26.910960 7.199800 0.000000 -59.858801 10.030196 -1.237243 1.538063 7.936415 3.084253 -9.239490 2.021930 0.515757 3.580616 -0.865246 -3.904498 -2.536348 -0.791899 0.000000 -51.004600
0.427348 17.457147 -0.855715 124.684307 -85.457689 -116.023018 -9.812844 -1.526385 0.780899 -7.535691 -5.594048 -45.411261 1.535593 2.599261 66.187488 2.886631 13.713201 29.275427 7.106400 -0.000000 -57.928700 10.161728 -1.122265 1.190142 7.777700 2.567503 -8.796965 1.990297 0.441486 3.827715 -0.840089 -3.744105 -2.563516 -0.757400 0.000001 -51.249000
0.489640 17.452930 -0.873765 121.849083 -85.449000 -113.687298 -9.722719 -1.899237 0.492842 -7.668905 -5.791993 -47.979360 1.685057 2.853101 70.683128 2.923512 13.033678 31.043438 6.924700 -0.000000 -56.027601 10.282429 -1.007072 0.838340 7.629963 2.079494 -8.271060 1.957996 0.371988 4.022701 -0.823363 -3.635199 -2.588844 -0.730700 -0.000000 -51.472100
0.550507 17.447638 -0.889203 119.112856 -85.442080 -111.469684 -9.635209 -2.262323 0.185108 -7.859386 -5.938176 -50.566499 1.869260 3.136161 75.146316 2.950543 12.505905 32.236680 6.735600 0.000000 -54.499500 10.393536 -0.894267 0.494309 7.487713 1.633055 -7.692797 1.924292 0.306893 4.181655 -0.815289 -3.577420 -2.616741 -0.711300 0.000000 -51.667400
0.608543 17.441759 -0.902655 116.503686 -85.429042 -109.381664 -9.548185 -2.616791 -0.130264 -8.104738 -6.046850 -53.182234 2.100741 3.440320 79.529931 2.971315 12.177285 32.887824 6.591700 0.000000 -53.311500 10.496508 -0.785971 0.169119 7.345098 1.238589 -7.097087 1.888491 0.245563 4.325072 -0.815670 -3.567610 -2.652865 -0.698200 0.000000 -51.832400
0.662555 17.435769 -0.914784 114.049401 -85.401860 -107.434987 -9.456840 -2.965333 -0.439299 -8.397047 -6.140594 -55.836370 2.383645 3.754722 83.775264 2.989643 12.063530 33.070863 6.523200 0.000000 -52.479000 10.593014 -0.683345 -0.128707 7.195875 0.900995 -6.520566 1.850135 0.186930 4.477773 -0.823646 -3.598284 -2.704032 -0.689800 0.000000 -51.966499
0.711557 17.430097 -0.926263 111.777655 -85.352797 -105.641634 -9.354639 -3.310665 -0.727473 -8.722376 -6.245498 -58.539889 2.714243 4.068060 87.818804 3.007961 12.143295 32.885127 6.532500 -0.000000 -51.990500 10.684845 -0.586779 -0.393253 7.033525 0.620795 -5.998021 1.808929 0.129711 4.665839 -0.837921 -3.659182 -2.777722 -0.683800 0.000000 -52.069900
0.754803 17.425086 -0.937598 109.721952 -85.276904 -104.019962 -9.235254 -3.655533 -0.980039 -9.059355 -6.388450 -61.308841 3.082377 4.370300 91.599246 3.026914 12.362948 32.448852 6.599500 -0.000000 -51.817400 10.771917 -0.496525 -0.620098 6.855571 0.399374 -5.561607 1.764994 0.072890 4.912439 -0.857587 -3.742676 -2.880050 -0.678600 0.000000 -52.145500
